<mxfile host="Electron" modified="2023-12-06T16:25:20.431Z" agent="Mozilla/5.0 (Windows NT 10.0; Win64; x64) AppleWebKit/537.36 (KHTML, like Gecko) draw.io/22.1.2 Chrome/114.0.5735.289 Electron/25.9.4 Safari/537.36" etag="HNNWM33EoTmUPrujdQsr" version="22.1.2" type="device">
  <diagram name="Page-1" id="TFqvkwcUQS9IBXuMVqgD">
    <mxGraphModel dx="288" dy="1268" grid="0" gridSize="10" guides="1" tooltips="1" connect="1" arrows="1" fold="1" page="1" pageScale="1" pageWidth="850" pageHeight="1100" math="1" shadow="0">
      <root>
        <mxCell id="0" />
        <mxCell id="1" parent="0" />
        <mxCell id="4gfCM6qdzsZKNuUlVMKA-1" value="" style="group;movable=1;resizable=1;rotatable=1;deletable=1;editable=1;locked=0;connectable=1;" parent="1" vertex="1" connectable="0">
          <mxGeometry x="494" y="-199" width="300" height="140" as="geometry" />
        </mxCell>
        <mxCell id="4gfCM6qdzsZKNuUlVMKA-2" value="Joint" style="rounded=0;whiteSpace=wrap;html=1;connectable=1;allowArrows=0;expand=0;editable=1;movable=1;resizable=1;rotatable=1;deletable=1;locked=0;imageAspect=1;fillColor=#5297e0;container=0;fontColor=#FFFFFF;" parent="4gfCM6qdzsZKNuUlVMKA-1" vertex="1">
          <mxGeometry width="60" height="20" as="geometry" />
        </mxCell>
        <mxCell id="4gfCM6qdzsZKNuUlVMKA-3" value="\(\theta\)" style="rounded=0;whiteSpace=wrap;html=1;connectable=1;allowArrows=0;expand=0;editable=1;movable=1;resizable=1;rotatable=1;deletable=1;locked=0;imageAspect=1;fillColor=#5297e0;container=0;fontColor=#FFFFFF;" parent="4gfCM6qdzsZKNuUlVMKA-1" vertex="1">
          <mxGeometry x="60" width="60" height="20" as="geometry" />
        </mxCell>
        <mxCell id="4gfCM6qdzsZKNuUlVMKA-4" value="\(d\)" style="rounded=0;whiteSpace=wrap;html=1;connectable=1;allowArrows=0;expand=0;editable=1;movable=1;resizable=1;rotatable=1;deletable=1;locked=0;imageAspect=1;fillColor=#5297e0;container=0;fontColor=#FFFFFF;" parent="4gfCM6qdzsZKNuUlVMKA-1" vertex="1">
          <mxGeometry x="120" width="60" height="20" as="geometry" />
        </mxCell>
        <mxCell id="4gfCM6qdzsZKNuUlVMKA-5" value="\(a\)" style="rounded=0;whiteSpace=wrap;html=1;connectable=1;allowArrows=0;expand=0;editable=1;movable=1;resizable=1;rotatable=1;deletable=1;locked=0;imageAspect=1;fillColor=#5297e0;container=0;fontColor=#FFFFFF;" parent="4gfCM6qdzsZKNuUlVMKA-1" vertex="1">
          <mxGeometry x="180" width="60" height="20" as="geometry" />
        </mxCell>
        <mxCell id="4gfCM6qdzsZKNuUlVMKA-6" value="\(\alpha\)" style="rounded=0;whiteSpace=wrap;html=1;connectable=1;allowArrows=0;expand=0;editable=1;movable=1;resizable=1;rotatable=1;deletable=1;locked=0;imageAspect=1;fillColor=#5297e0;container=0;fontColor=#FFFFFF;" parent="4gfCM6qdzsZKNuUlVMKA-1" vertex="1">
          <mxGeometry x="239" width="61" height="20" as="geometry" />
        </mxCell>
        <mxCell id="4gfCM6qdzsZKNuUlVMKA-7" value="1" style="rounded=0;whiteSpace=wrap;html=1;connectable=1;allowArrows=0;expand=0;editable=1;movable=1;resizable=1;rotatable=1;deletable=1;locked=0;imageAspect=1;container=0;" parent="4gfCM6qdzsZKNuUlVMKA-1" vertex="1">
          <mxGeometry y="20" width="60" height="20" as="geometry" />
        </mxCell>
        <mxCell id="4gfCM6qdzsZKNuUlVMKA-8" value="\(\frac{3 \pi}{2}\)" style="rounded=0;whiteSpace=wrap;html=1;connectable=1;allowArrows=0;expand=0;editable=1;movable=1;resizable=1;rotatable=1;deletable=1;locked=0;imageAspect=1;container=0;" parent="4gfCM6qdzsZKNuUlVMKA-1" vertex="1">
          <mxGeometry x="60" y="20" width="60" height="20" as="geometry" />
        </mxCell>
        <mxCell id="4gfCM6qdzsZKNuUlVMKA-9" value="\({L}_{1}\)" style="rounded=0;whiteSpace=wrap;html=1;connectable=1;allowArrows=0;expand=0;editable=1;movable=1;resizable=1;rotatable=1;deletable=1;locked=0;imageAspect=1;container=0;" parent="4gfCM6qdzsZKNuUlVMKA-1" vertex="1">
          <mxGeometry x="120" y="20" width="60" height="20" as="geometry" />
        </mxCell>
        <mxCell id="4gfCM6qdzsZKNuUlVMKA-10" value="0" style="rounded=0;whiteSpace=wrap;html=1;connectable=1;allowArrows=0;expand=0;editable=1;movable=1;resizable=1;rotatable=1;deletable=1;locked=0;imageAspect=1;container=0;" parent="4gfCM6qdzsZKNuUlVMKA-1" vertex="1">
          <mxGeometry x="180" y="20" width="60" height="20" as="geometry" />
        </mxCell>
        <mxCell id="4gfCM6qdzsZKNuUlVMKA-11" value="\(\frac{3 \pi}{2}\)" style="rounded=0;whiteSpace=wrap;html=1;connectable=1;allowArrows=0;expand=0;editable=1;movable=1;resizable=1;rotatable=1;deletable=1;locked=0;imageAspect=1;container=0;" parent="4gfCM6qdzsZKNuUlVMKA-1" vertex="1">
          <mxGeometry x="239" y="20" width="61" height="20" as="geometry" />
        </mxCell>
        <mxCell id="4gfCM6qdzsZKNuUlVMKA-12" value="2" style="rounded=0;whiteSpace=wrap;html=1;connectable=1;allowArrows=0;expand=0;editable=1;movable=1;resizable=1;rotatable=1;deletable=1;locked=0;imageAspect=1;container=0;" parent="4gfCM6qdzsZKNuUlVMKA-1" vertex="1">
          <mxGeometry y="40" width="60" height="20" as="geometry" />
        </mxCell>
        <mxCell id="4gfCM6qdzsZKNuUlVMKA-13" value="\(\frac{3 \pi}{2}\)" style="rounded=0;whiteSpace=wrap;html=1;connectable=1;allowArrows=0;expand=0;editable=1;movable=1;resizable=1;rotatable=1;deletable=1;locked=0;imageAspect=1;container=0;" parent="4gfCM6qdzsZKNuUlVMKA-1" vertex="1">
          <mxGeometry x="60" y="40" width="60" height="20" as="geometry" />
        </mxCell>
        <mxCell id="4gfCM6qdzsZKNuUlVMKA-14" value="0" style="rounded=0;whiteSpace=wrap;html=1;connectable=1;allowArrows=0;expand=0;editable=1;movable=1;resizable=1;rotatable=1;deletable=1;locked=0;imageAspect=1;container=0;" parent="4gfCM6qdzsZKNuUlVMKA-1" vertex="1">
          <mxGeometry x="120" y="40" width="60" height="20" as="geometry" />
        </mxCell>
        <mxCell id="4gfCM6qdzsZKNuUlVMKA-15" value="\({L}_{2}\)" style="rounded=0;whiteSpace=wrap;html=1;connectable=1;allowArrows=0;expand=0;editable=1;movable=1;resizable=1;rotatable=1;deletable=1;locked=0;imageAspect=1;container=0;" parent="4gfCM6qdzsZKNuUlVMKA-1" vertex="1">
          <mxGeometry x="180" y="40" width="60" height="20" as="geometry" />
        </mxCell>
        <mxCell id="4gfCM6qdzsZKNuUlVMKA-16" value="0" style="rounded=0;whiteSpace=wrap;html=1;connectable=1;allowArrows=0;expand=0;editable=1;movable=1;resizable=1;rotatable=1;deletable=1;locked=0;imageAspect=1;container=0;" parent="4gfCM6qdzsZKNuUlVMKA-1" vertex="1">
          <mxGeometry x="239" y="40" width="61" height="20" as="geometry" />
        </mxCell>
        <mxCell id="4gfCM6qdzsZKNuUlVMKA-17" value="3" style="rounded=0;whiteSpace=wrap;html=1;connectable=1;allowArrows=0;expand=0;editable=1;movable=1;resizable=1;rotatable=1;deletable=1;locked=0;imageAspect=1;container=0;" parent="4gfCM6qdzsZKNuUlVMKA-1" vertex="1">
          <mxGeometry y="60" width="60" height="20" as="geometry" />
        </mxCell>
        <mxCell id="4gfCM6qdzsZKNuUlVMKA-18" value="\(\frac{ \pi}{2}\)" style="rounded=0;whiteSpace=wrap;html=1;connectable=1;allowArrows=0;expand=0;editable=1;movable=1;resizable=1;rotatable=1;deletable=1;locked=0;imageAspect=1;container=0;" parent="4gfCM6qdzsZKNuUlVMKA-1" vertex="1">
          <mxGeometry x="60" y="60" width="60" height="20" as="geometry" />
        </mxCell>
        <mxCell id="4gfCM6qdzsZKNuUlVMKA-19" value="0" style="rounded=0;whiteSpace=wrap;html=1;connectable=1;allowArrows=0;expand=0;editable=1;movable=1;resizable=1;rotatable=1;deletable=1;locked=0;imageAspect=1;container=0;" parent="4gfCM6qdzsZKNuUlVMKA-1" vertex="1">
          <mxGeometry x="120" y="60" width="60" height="20" as="geometry" />
        </mxCell>
        <mxCell id="4gfCM6qdzsZKNuUlVMKA-20" value="0" style="rounded=0;whiteSpace=wrap;html=1;connectable=1;allowArrows=0;expand=0;editable=1;movable=1;resizable=1;rotatable=1;deletable=1;locked=0;imageAspect=1;container=0;" parent="4gfCM6qdzsZKNuUlVMKA-1" vertex="1">
          <mxGeometry x="180" y="60" width="60" height="20" as="geometry" />
        </mxCell>
        <mxCell id="4gfCM6qdzsZKNuUlVMKA-21" value="\(\frac{\pi}{2}\)" style="rounded=0;whiteSpace=wrap;html=1;connectable=1;allowArrows=0;expand=0;editable=1;movable=1;resizable=1;rotatable=1;deletable=1;locked=0;imageAspect=1;container=0;" parent="4gfCM6qdzsZKNuUlVMKA-1" vertex="1">
          <mxGeometry x="239" y="60" width="61" height="20" as="geometry" />
        </mxCell>
        <mxCell id="4gfCM6qdzsZKNuUlVMKA-22" value="4" style="rounded=0;whiteSpace=wrap;html=1;connectable=1;allowArrows=0;expand=0;editable=1;movable=1;resizable=1;rotatable=1;deletable=1;locked=0;imageAspect=1;container=0;" parent="4gfCM6qdzsZKNuUlVMKA-1" vertex="1">
          <mxGeometry y="80" width="60" height="20" as="geometry" />
        </mxCell>
        <mxCell id="4gfCM6qdzsZKNuUlVMKA-23" value="0" style="rounded=0;whiteSpace=wrap;html=1;connectable=1;allowArrows=0;expand=0;editable=1;movable=1;resizable=1;rotatable=1;deletable=1;locked=0;imageAspect=1;container=0;" parent="4gfCM6qdzsZKNuUlVMKA-1" vertex="1">
          <mxGeometry x="60" y="80" width="60" height="20" as="geometry" />
        </mxCell>
        <mxCell id="4gfCM6qdzsZKNuUlVMKA-24" value="\({L}_{3}+{L}_{4}\)" style="rounded=0;whiteSpace=wrap;html=1;connectable=1;allowArrows=0;expand=0;editable=1;movable=1;resizable=1;rotatable=1;deletable=1;locked=0;imageAspect=1;container=0;" parent="4gfCM6qdzsZKNuUlVMKA-1" vertex="1">
          <mxGeometry x="120" y="80" width="60" height="20" as="geometry" />
        </mxCell>
        <mxCell id="4gfCM6qdzsZKNuUlVMKA-25" value="0" style="rounded=0;whiteSpace=wrap;html=1;connectable=1;allowArrows=0;expand=0;editable=1;movable=1;resizable=1;rotatable=1;deletable=1;locked=0;imageAspect=1;container=0;" parent="4gfCM6qdzsZKNuUlVMKA-1" vertex="1">
          <mxGeometry x="180" y="80" width="60" height="20" as="geometry" />
        </mxCell>
        <mxCell id="4gfCM6qdzsZKNuUlVMKA-26" value="\(\frac{3 \pi}{2}\)" style="rounded=0;whiteSpace=wrap;html=1;connectable=1;allowArrows=0;expand=0;editable=1;movable=1;resizable=1;rotatable=1;deletable=1;locked=0;imageAspect=1;container=0;" parent="4gfCM6qdzsZKNuUlVMKA-1" vertex="1">
          <mxGeometry x="239" y="80" width="61" height="20" as="geometry" />
        </mxCell>
        <mxCell id="4gfCM6qdzsZKNuUlVMKA-27" value="5" style="rounded=0;whiteSpace=wrap;html=1;connectable=1;allowArrows=0;expand=0;editable=1;movable=1;resizable=1;rotatable=1;deletable=1;locked=0;imageAspect=1;container=0;" parent="4gfCM6qdzsZKNuUlVMKA-1" vertex="1">
          <mxGeometry y="100" width="60" height="20" as="geometry" />
        </mxCell>
        <mxCell id="4gfCM6qdzsZKNuUlVMKA-28" value="\(\frac{3 \pi}{2}\)" style="rounded=0;whiteSpace=wrap;html=1;connectable=1;allowArrows=0;expand=0;editable=1;movable=1;resizable=1;rotatable=1;deletable=1;locked=0;imageAspect=1;container=0;" parent="4gfCM6qdzsZKNuUlVMKA-1" vertex="1">
          <mxGeometry x="60" y="100" width="60" height="20" as="geometry" />
        </mxCell>
        <mxCell id="4gfCM6qdzsZKNuUlVMKA-29" value="0" style="rounded=0;whiteSpace=wrap;html=1;connectable=1;allowArrows=0;expand=0;editable=1;movable=1;resizable=1;rotatable=1;deletable=1;locked=0;imageAspect=1;container=0;" parent="4gfCM6qdzsZKNuUlVMKA-1" vertex="1">
          <mxGeometry x="120" y="100" width="60" height="20" as="geometry" />
        </mxCell>
        <mxCell id="4gfCM6qdzsZKNuUlVMKA-30" value="\({L}_{5}\)" style="rounded=0;whiteSpace=wrap;html=1;connectable=1;allowArrows=0;expand=0;editable=1;movable=1;resizable=1;rotatable=1;deletable=1;locked=0;imageAspect=1;container=0;" parent="4gfCM6qdzsZKNuUlVMKA-1" vertex="1">
          <mxGeometry x="180" y="100" width="60" height="20" as="geometry" />
        </mxCell>
        <mxCell id="4gfCM6qdzsZKNuUlVMKA-31" value="\(\frac{3 \pi}{2}\)" style="rounded=0;whiteSpace=wrap;html=1;connectable=1;allowArrows=0;expand=0;editable=1;movable=1;resizable=1;rotatable=1;deletable=1;locked=0;imageAspect=1;container=0;" parent="4gfCM6qdzsZKNuUlVMKA-1" vertex="1">
          <mxGeometry x="239" y="100" width="61" height="20" as="geometry" />
        </mxCell>
        <mxCell id="4gfCM6qdzsZKNuUlVMKA-32" value="6" style="rounded=0;whiteSpace=wrap;html=1;connectable=1;allowArrows=0;expand=0;editable=1;movable=1;resizable=1;rotatable=1;deletable=1;locked=0;imageAspect=1;container=0;" parent="4gfCM6qdzsZKNuUlVMKA-1" vertex="1">
          <mxGeometry y="120" width="60" height="20" as="geometry" />
        </mxCell>
        <mxCell id="4gfCM6qdzsZKNuUlVMKA-33" value="0" style="rounded=0;whiteSpace=wrap;html=1;connectable=1;allowArrows=0;expand=0;editable=1;movable=1;resizable=1;rotatable=1;deletable=1;locked=0;imageAspect=1;container=0;" parent="4gfCM6qdzsZKNuUlVMKA-1" vertex="1">
          <mxGeometry x="60" y="120" width="60" height="20" as="geometry" />
        </mxCell>
        <mxCell id="4gfCM6qdzsZKNuUlVMKA-34" value="0" style="rounded=0;whiteSpace=wrap;html=1;connectable=1;allowArrows=0;expand=0;editable=1;movable=1;resizable=1;rotatable=1;deletable=1;locked=0;imageAspect=1;container=0;" parent="4gfCM6qdzsZKNuUlVMKA-1" vertex="1">
          <mxGeometry x="120" y="120" width="60" height="20" as="geometry" />
        </mxCell>
        <mxCell id="4gfCM6qdzsZKNuUlVMKA-35" value="\({L}_{6}\)" style="rounded=0;whiteSpace=wrap;html=1;connectable=1;allowArrows=0;expand=0;editable=1;movable=1;resizable=1;rotatable=1;deletable=1;locked=0;imageAspect=1;container=0;" parent="4gfCM6qdzsZKNuUlVMKA-1" vertex="1">
          <mxGeometry x="180" y="120" width="60" height="20" as="geometry" />
        </mxCell>
        <mxCell id="4gfCM6qdzsZKNuUlVMKA-36" value="0" style="rounded=0;whiteSpace=wrap;html=1;connectable=1;allowArrows=0;expand=0;editable=1;movable=1;resizable=1;rotatable=1;deletable=1;locked=0;imageAspect=1;container=0;" parent="4gfCM6qdzsZKNuUlVMKA-1" vertex="1">
          <mxGeometry x="239" y="120" width="61" height="20" as="geometry" />
        </mxCell>
      </root>
    </mxGraphModel>
  </diagram>
</mxfile>
